<svg width="25" height="24" viewBox="0 0 25 24" fill="none" xmlns="http://www.w3.org/2000/svg">
<path d="M20.5 10.6667V8C20.5 5.79086 18.7091 4 16.5 4L8.5 4C6.29086 4 4.5 5.79086 4.5 8V16C4.5 18.2091 6.29086 20 8.5 20H16.5C18.7091 20 20.5 18.2091 20.5 16V13.3333" stroke="#090E1D" stroke-width="2"/>
<path d="M20.5 11V10C20.5 8.34315 19.1569 7 17.5 7L13.5 7C11.8431 7 10.5 8.34315 10.5 10V14C10.5 15.6569 11.8431 17 13.5 17H17.5C19.1569 17 20.5 15.6569 20.5 14V13" stroke="#090E1D" stroke-width="2"/>
</svg>
