<svg width="25" height="24" viewBox="0 0 25 24" fill="none" xmlns="http://www.w3.org/2000/svg">
<path d="M15.2716 19.1481V19.1481C15.5206 18.5469 14.9726 18 14.3219 18H12.5L10.6781 18C10.0274 18 9.47937 18.5469 9.72836 19.1481V19.1481C9.87913 19.512 10.1001 19.8427 10.3787 20.1213C10.6573 20.3999 10.988 20.6209 11.3519 20.7716C11.7159 20.9224 12.106 21 12.5 21C12.894 21 13.2841 20.9224 13.6481 20.7716C14.012 20.6209 14.3427 20.3999 14.6213 20.1213C14.8999 19.8427 15.1209 19.512 15.2716 19.1481Z" stroke="#090E1D" stroke-width="2"/>
<path d="M12.5 4V2" stroke="#090E1D" stroke-width="2"/>
<path d="M7.40111 7.8461C8.05156 5.56955 10.1324 4 12.5 4V4C14.8676 4 16.9484 5.56954 17.5989 7.8461L19.5086 14.5299C20.0054 16.2689 18.6997 18 16.8911 18H8.10892C6.30034 18 4.99459 16.2689 5.49145 14.5299L7.40111 7.8461Z" stroke="#090E1D" stroke-width="2"/>
</svg>
